<svg width="42" height="42" viewBox="0 0 42 42" fill="none" xmlns="http://www.w3.org/2000/svg">
<path d="M6.70808 31.5934C6.11859 30.7549 5.93519 29.8639 5.92209 28.9074C5.90899 25.9987 5.86969 23.103 5.88279 20.1943C5.88279 19.5522 5.73869 19.2771 5.0444 19.3426C4.41561 19.4081 3.77372 19.3819 3.14493 19.3819C1.90045 19.395 1.17996 18.6351 1.24546 17.3641C1.27166 16.8793 1.23236 16.3945 1.28476 15.9229C1.49435 14.1671 2.83053 12.8831 4.59901 12.9355C5.62079 12.9748 6.32818 12.621 6.98317 11.9135C7.84776 10.9832 8.77785 10.1315 9.65554 9.21437C10.8738 7.91723 12.3541 7.27521 14.1357 7.28831C18.7206 7.30141 23.3055 7.30141 27.8905 7.28831C29.6065 7.28831 31.0344 7.89102 32.2134 9.12266C33.1959 10.1447 34.2439 11.1011 35.2133 12.1493C35.7635 12.7389 36.3661 12.9617 37.1782 12.9224C38.6716 12.8569 39.7982 13.5513 40.4139 14.9271C40.8855 15.9622 40.8069 17.0759 40.6104 18.1503C40.4663 18.9102 39.7196 19.395 38.8943 19.395C38.1476 19.395 37.414 19.395 36.6673 19.3557C36.1827 19.3295 36.0255 19.4867 36.0386 19.9846C36.0779 22.9327 36.0779 25.8676 36.1041 28.8157C36.1172 31.1742 34.7417 32.9954 32.5802 33.4671C30.4187 33.9257 28.3883 32.8251 27.4713 30.6632C27.2355 30.1128 26.8687 29.8901 26.3185 29.8901C25.4277 29.8901 24.5369 29.8901 23.5282 29.8901C23.8426 29.366 24.0915 28.9205 24.3666 28.5012C24.4321 28.3964 24.6286 28.3309 24.7596 28.3309C25.4801 28.3309 26.2006 28.2785 26.9211 28.3702C27.9691 28.5012 28.5979 29.1695 28.9909 30.1391C29.7506 31.9996 31.9776 32.5761 33.4841 31.3052C34.1391 30.7549 34.5059 30.0604 34.5059 29.1957C34.4928 26.1821 34.4666 23.1816 34.4404 20.1681C34.4404 19.7357 34.4535 19.2902 34.4666 18.8578C34.4797 18.0324 34.7155 17.7834 35.5801 17.7834C36.5625 17.7703 37.545 17.7703 38.5275 17.7834C38.9729 17.7965 39.1825 17.6524 39.1301 17.1938C39.1039 16.8662 39.1432 16.5387 39.117 16.2111C39.0646 15.2546 38.3965 14.5864 37.4533 14.5078C37.414 14.5078 37.3616 14.4947 37.3223 14.5078C35.8028 14.8091 34.7548 14.023 33.7985 12.9879C32.9077 12.0314 31.9514 11.1273 31.0344 10.1971C30.1829 9.31919 29.1612 8.88681 27.9298 8.88681C23.3055 8.89991 18.6682 8.89991 14.044 8.88681C12.8126 8.88681 11.8039 9.31919 10.9393 10.1971C9.69483 11.4418 8.42415 12.6603 7.16657 13.9051C6.73428 14.3243 6.24958 14.5602 5.63389 14.4816C5.56839 14.4685 5.5029 14.4816 5.4374 14.4816C3.32833 14.3506 2.72574 15.2546 2.84363 17.2593C2.86983 17.6655 3.01393 17.7834 3.39383 17.7834C4.33701 17.7703 5.2671 17.7834 6.21029 17.7834C7.33687 17.7834 7.50717 17.9537 7.50717 19.0543C7.50717 22.2383 7.50717 25.4222 7.50717 28.6061C7.50717 28.9336 7.44167 29.3005 7.57267 29.5756C8.05736 30.5583 7.45477 31.0562 6.70808 31.5934Z" fill="#6D6E71" stroke="#6D6E71" stroke-width="0.305328"/>
<path d="M11.4497 30.4666C10.4541 31.4886 9.49779 32.4975 8.52841 33.4933C8.26641 33.7553 8.00441 34.0174 7.74242 34.2794C7.23152 34.7773 6.79923 34.8429 6.43244 34.4891C6.05254 34.1222 6.11804 33.6636 6.64203 33.1395C7.70312 32.0782 8.7642 31.0038 9.83839 29.9556C10.0087 29.7853 10.2183 29.6543 10.4279 29.4839C8.7642 27.2303 8.18781 24.8326 8.9083 22.2252C9.36679 20.5611 10.31 19.133 11.7117 18.1634C15.1831 15.7394 19.4274 16.1194 22.1653 18.9364C24.9294 21.7797 25.0473 26.2607 22.7679 29.1826C21.4186 30.9252 19.6501 31.9472 17.4625 32.2093C15.2617 32.4582 13.2967 31.8817 11.4497 30.4666ZM16.5193 18.1503C13.1264 18.1372 10.2445 20.9804 10.2183 24.3478C10.2052 27.8723 12.9954 30.7025 16.4931 30.7025C19.9514 30.7025 22.7941 27.8985 22.7548 24.4002C22.7417 21.1508 20.1872 18.1372 16.5193 18.1503Z" fill="#6D6E71" stroke="#6D6E71" stroke-width="0.305328"/>
<path d="M24.9432 21.6618C26.4235 21.6618 27.8251 21.6225 29.2399 21.7011C29.4626 21.7142 29.8294 22.1859 29.8425 22.461C29.8949 23.7189 29.8687 24.9898 29.7901 26.2476C29.777 26.4966 29.3971 26.929 29.1744 26.9421C27.812 27.0076 26.4366 26.9683 25.0218 26.9683C25.1004 26.5228 25.1266 26.1166 25.2576 25.7628C25.31 25.6056 25.5851 25.4353 25.7685 25.4353C26.4235 25.396 27.0785 25.4091 27.7334 25.4222C28.1264 25.4353 28.2836 25.2781 28.2574 24.885C28.2312 24.3871 28.2574 23.8892 28.2574 23.2341C27.4584 23.2341 26.6855 23.2079 25.9126 23.2472C25.4148 23.2734 25.1921 23.103 25.1659 22.6051C25.1266 22.3038 25.0218 22.0155 24.9432 21.6618Z" fill="#6D6E71" stroke="#6D6E71" stroke-width="0.305328"/>
<path d="M11.8698 31.9472C12.1187 32.0782 12.5641 32.3272 13.1274 32.6285C12.158 33.3229 11.2017 33.6112 10.1537 33.5457C10.6908 33.0347 11.2279 32.5368 11.8698 31.9472Z" fill="#6D6E71" stroke="#6D6E71" stroke-width="0.305328"/>
<path d="M21.603 23.234C19.0093 23.234 16.4286 23.234 13.7431 23.234C13.7431 23.9153 13.7038 24.518 13.7693 25.1207C13.7824 25.2387 14.1492 25.3959 14.3588 25.409C16.5203 25.4352 18.6818 25.4221 20.8432 25.4221C21.0921 25.4221 21.3541 25.4483 21.7209 25.4614C21.5768 25.8938 21.5113 26.2607 21.3279 26.562C21.21 26.7585 20.9218 26.9682 20.6991 26.9682C18.1709 26.9944 15.6295 26.9944 13.1013 26.9813C12.407 26.9813 12.1581 26.7192 12.145 26.0248C12.1319 24.9111 12.1319 23.7974 12.145 22.6968C12.1581 21.8975 12.407 21.6486 13.2192 21.6355C15.5116 21.6224 17.791 21.6093 20.0835 21.5962C21.1052 21.5962 21.5375 22.0416 21.603 23.234Z" fill="#6D6E71" stroke="#6D6E71" stroke-width="0.305328"/>
</svg>
