<svg width="19" height="36" viewBox="0 0 19 36" fill="none" xmlns="http://www.w3.org/2000/svg">
<path d="M11.3107 33.017C6.78248 33.017 3.11027 29.3397 3.11027 24.8053L3.12334 14.6502C3.12334 14.624 3.12334 14.5979 3.12334 14.5652C3.12334 13.6491 2.42418 12.8966 1.56167 12.8966C0.699157 12.8966 0 13.6491 0 14.5652C0 14.5913 0 14.624 0 14.6502V24.8053C0 29.5491 2.91424 33.6059 7.04384 35.2941C17.3482 38.762 18.7204 28.3255 18.7204 28.3255C17.4005 31.0999 14.5843 33.017 11.3107 33.017Z" fill="#00AB54"/>
<path d="M16.5512 13.021C15.8716 13.3089 15.5972 13.9567 15.5972 14.6503C15.5972 15.9524 15.6168 24.9886 15.5253 25.5447C15.1659 27.6517 13.2383 29.2024 11.1147 29.1043C9.0042 29.0061 7.2269 27.3114 7.03741 25.2045V4.38397L3.90101 8.02854V24.1052C3.90101 25.0867 3.93368 26.0551 4.22771 27.0104C4.82886 28.9669 6.25331 30.6157 8.08942 31.5056C9.99086 32.4217 12.2517 32.4806 14.1923 31.6561C16.0742 30.8578 17.5705 29.2809 18.2697 27.3638C18.6617 26.2841 18.714 25.1849 18.714 24.0529V14.4605C18.7205 13.3613 17.564 12.5892 16.5512 13.021Z" fill="#2F5FAC"/>
<path d="M14.8326 8.21174L11.6962 4.56717L11.7027 24.6876C11.7027 24.9035 11.5263 25.0736 11.3172 25.0736C11.1015 25.0736 10.9317 24.897 10.9317 24.6876L10.9382 3.64457L7.79525 0C7.79525 0 7.80832 24.6418 7.80832 24.6876C7.80832 26.6309 9.38306 28.2013 11.3172 28.2013C13.0422 28.2013 14.4797 26.9515 14.7672 25.3026C14.7999 25.1783 14.8195 25.0409 14.8195 24.9035H14.826C14.8195 24.5305 14.8326 8.21174 14.8326 8.21174Z" fill="#2F5FAC"/>
</svg>
