<svg width="42" height="42" viewBox="0 0 42 42" fill="none" xmlns="http://www.w3.org/2000/svg">
<path d="M18.8532 37.0487C18.308 36.8795 17.7314 36.7792 17.23 36.5285C15.4626 35.6324 14.51 34.1723 14.416 32.1857C14.3721 31.3084 14.3972 30.431 14.4097 29.5537C14.416 28.8142 14.9675 28.269 15.6757 28.2753C16.3651 28.2816 16.8978 28.8205 16.9104 29.5474C16.9229 30.3182 16.9104 31.0953 16.9166 31.8661C16.9229 33.4704 17.9821 34.5357 19.5928 34.5357C23.6791 34.5357 27.7591 34.5357 31.8454 34.5357C33.4686 34.5357 34.5278 33.4704 34.5278 31.8473C34.5278 24.6218 34.5278 17.39 34.5278 10.1645C34.5278 8.52261 33.4686 7.4698 31.8203 7.46353C27.7591 7.46353 23.6916 7.46353 19.6304 7.46353C17.9695 7.46353 16.9229 8.51634 16.9166 10.1896C16.9166 10.9228 16.9229 11.6497 16.9166 12.3829C16.9104 13.1725 16.3839 13.7302 15.6569 13.7302C14.9424 13.724 14.4097 13.1725 14.416 12.3954C14.4222 11.3552 14.3721 10.3024 14.4849 9.26835C14.7419 6.91833 16.8101 5.05712 19.1791 4.96938C19.95 4.93805 20.7272 4.95685 21.4981 4.95685C24.9639 4.95685 28.436 4.95685 31.9018 4.95685C34.158 4.95685 36.032 6.24779 36.7464 8.34087C36.9282 8.87354 37.0222 9.46261 37.0222 10.0266C37.041 17.3461 37.041 24.6719 37.0285 31.9914C37.0222 34.5483 35.2486 36.5849 32.7228 36.986C32.6727 36.9923 32.6288 37.0236 32.5849 37.0424C28.0035 37.0487 23.4284 37.0487 18.8532 37.0487Z" fill="#6D6E71"/>
<path d="M4.93969 20.7552C5.19666 20.0095 5.72938 19.74 6.50653 19.7463C11.2258 19.7651 15.9451 19.7525 20.6644 19.7525C20.7835 19.7525 20.9088 19.7525 21.0968 19.7525C20.7145 19.3703 20.3886 19.0381 20.0565 18.7122C19.7306 18.3864 19.3921 18.073 19.085 17.7346C18.6025 17.202 18.615 16.4688 19.0976 15.9862C19.5739 15.51 20.3134 15.4724 20.8211 15.9549C21.8239 16.9137 22.8329 17.8725 23.7667 18.9002C24.9701 20.2225 24.8948 21.9835 23.6477 23.2619C22.7514 24.1831 21.8364 25.0792 20.9151 25.9754C20.3573 26.5206 19.599 26.5331 19.0976 26.0255C18.5899 25.5179 18.6025 24.7596 19.1477 24.2082C19.7055 23.6441 20.2758 23.0864 20.8336 22.5287C20.9026 22.4597 20.9715 22.3845 21.0843 22.2592C20.9026 22.2592 20.7835 22.2592 20.6644 22.2592C15.9451 22.2592 11.2258 22.2529 6.50653 22.2655C5.72938 22.2655 5.19666 22.0023 4.93969 21.2565C4.93969 21.0873 4.93969 20.9181 4.93969 20.7552Z" fill="#6D6E71"/>
</svg>
