<svg width="42" height="42" viewBox="0 0 42 42" fill="none" xmlns="http://www.w3.org/2000/svg">
<path d="M23.1238 4.95132C23.6691 5.12052 24.2456 5.22078 24.747 5.47145C26.5144 6.36759 27.467 7.82774 27.5611 9.81428C27.6049 10.6916 27.5799 11.569 27.5673 12.4463C27.5611 13.1858 27.0095 13.731 26.3013 13.7247C25.6119 13.7184 25.0792 13.1795 25.0667 12.4526C25.0541 11.6818 25.0667 10.9047 25.0604 10.1339C25.0541 8.52961 23.995 7.46427 22.3843 7.46427C18.298 7.46426 14.2179 7.46426 10.1316 7.46426C8.5084 7.46426 7.44922 8.5296 7.44922 10.1527C7.44922 17.3782 7.44922 24.61 7.44922 31.8355C7.44922 33.4774 8.5084 34.5302 10.1567 34.5365C14.2179 34.5365 18.2854 34.5365 22.3466 34.5365C24.0075 34.5365 25.0541 33.4837 25.0604 31.8104C25.0604 31.0772 25.0541 30.3503 25.0604 29.6171C25.0667 28.8275 25.5931 28.2698 26.3201 28.2698C27.0346 28.276 27.5673 28.8275 27.5611 29.6046C27.5548 30.6448 27.6049 31.6976 27.4921 32.7317C27.2352 35.0817 25.1669 36.9429 22.7979 37.0306C22.027 37.062 21.2499 37.0432 20.479 37.0432C17.0132 37.0432 13.5411 37.0432 10.0752 37.0432C7.81899 37.0432 5.94507 35.7522 5.23059 33.6591C5.04884 33.1265 4.95483 32.5374 4.95483 31.9734C4.93603 24.6539 4.93603 17.3281 4.94856 10.0086C4.95483 7.45173 6.72848 5.41505 9.25421 5.01398C9.30435 5.00771 9.34822 4.97638 9.39209 4.95758C13.9735 4.95132 18.5487 4.95132 23.1238 4.95132Z" fill="#6D6E71"/>
<path d="M18.5243 21.2448C18.7813 21.9905 19.314 22.26 20.0912 22.2537C24.8105 22.2349 29.5298 22.2474 34.2491 22.2474C34.3681 22.2474 34.4935 22.2474 34.6815 22.2474C34.2992 22.6297 33.9733 22.9618 33.6411 23.2877C33.3152 23.6136 32.9768 23.9269 32.6697 24.2653C32.1871 24.798 32.1996 25.5312 32.6822 26.0137C33.1585 26.49 33.8981 26.5276 34.4057 26.0451C35.4085 25.0863 36.4176 24.1275 37.3514 23.0997C38.5547 21.7774 38.4795 20.0165 37.2323 18.7381C36.3361 17.8169 35.421 16.9207 34.4998 16.0246C33.942 15.4794 33.1836 15.4669 32.6822 15.9745C32.1746 16.4821 32.1871 17.2403 32.7324 17.7918C33.2902 18.3558 33.8605 18.9135 34.4183 19.4713C34.4872 19.5402 34.5562 19.6154 34.669 19.7408C34.4872 19.7408 34.3681 19.7408 34.2491 19.7408C29.5298 19.7408 24.8105 19.747 20.0912 19.7345C19.314 19.7345 18.7813 19.9977 18.5243 20.7434C18.5243 20.9126 18.5243 21.0818 18.5243 21.2448Z" fill="#6D6E71"/>
</svg>
