<svg width="40" height="28" viewBox="0 0 40 28" fill="none" xmlns="http://www.w3.org/2000/svg">
<path d="M5.79207 24.3957C5.20925 23.5666 5.02793 22.6858 5.01498 21.7401C5.00203 18.8643 4.96317 16.0014 4.97612 13.1256C4.97612 12.4908 4.83366 12.2188 4.14722 12.2835C3.52555 12.3483 2.89092 12.3224 2.26925 12.3224C1.03885 12.3354 0.326516 11.584 0.391273 10.3275C0.417176 9.84815 0.378322 9.36884 0.430128 8.90249C0.637353 7.16663 1.95841 5.89712 3.70687 5.94893C4.71709 5.9878 5.41648 5.63803 6.06405 4.93851C6.91885 4.01876 7.83841 3.17673 8.70617 2.26994C9.91066 0.987475 11.3742 0.352719 13.1356 0.365673C17.6686 0.378627 22.2017 0.378627 26.7347 0.365673C28.4314 0.365673 29.8431 0.961566 31.0087 2.17926C31.9801 3.18969 33.0162 4.13535 33.9746 5.17168C34.5186 5.75462 35.1144 5.97484 35.9174 5.93598C37.3939 5.87121 38.5077 6.55778 39.1164 7.91797C39.5827 8.94135 39.505 10.0425 39.3107 11.1047C39.1682 11.8561 38.43 12.3354 37.614 12.3354C36.8758 12.3354 36.1505 12.3354 35.4123 12.2965C34.9331 12.2706 34.7776 12.426 34.7906 12.9183C34.8295 15.833 34.8295 18.7347 34.8554 21.6494C34.8683 23.9812 33.5084 25.7818 31.3714 26.2482C29.2344 26.7016 27.2269 25.6134 26.3203 23.476C26.0872 22.9319 25.7245 22.7117 25.1805 22.7117C24.2998 22.7117 23.4191 22.7117 22.4219 22.7117C22.7327 22.1935 22.9788 21.7531 23.2508 21.3385C23.3155 21.2349 23.5098 21.1701 23.6393 21.1701C24.3516 21.1701 25.064 21.1183 25.7763 21.209C26.8124 21.3385 27.4341 21.9992 27.8227 22.9578C28.5739 24.7973 30.7756 25.3673 32.265 24.1107C32.9126 23.5666 33.2753 22.8801 33.2753 22.0251C33.2623 19.0456 33.2364 16.0791 33.2105 13.0997C33.2105 12.6722 33.2235 12.2317 33.2364 11.8042C33.2494 10.9881 33.4825 10.742 34.3373 10.742C35.3087 10.729 36.28 10.729 37.2514 10.742C37.6917 10.7549 37.899 10.6124 37.8472 10.159C37.8213 9.83519 37.8601 9.51134 37.8342 9.18748C37.7824 8.24183 37.1219 7.58116 36.1894 7.50344C36.1505 7.50344 36.0987 7.49048 36.0598 7.50344C34.5575 7.80138 33.5213 7.02413 32.5759 6.00075C31.6952 5.05509 30.7497 4.16125 29.8431 3.24151C29.0013 2.37357 27.991 1.94609 26.7736 1.94609C22.2017 1.95904 17.6168 1.95904 13.0449 1.94609C11.8275 1.94609 10.8302 2.37357 9.97542 3.24151C8.74502 4.47215 7.48872 5.6769 6.24537 6.90754C5.81797 7.32208 5.33877 7.55526 4.73004 7.47753C4.66529 7.46458 4.60053 7.47753 4.53577 7.47753C2.45057 7.34799 1.8548 8.24183 1.97136 10.2238C1.99727 10.6254 2.13973 10.742 2.51533 10.742C3.44784 10.729 4.3674 10.742 5.29991 10.742C6.41374 10.742 6.58211 10.9104 6.58211 11.9985C6.58211 15.1464 6.58211 18.2943 6.58211 21.4422C6.58211 21.766 6.51736 22.1287 6.64687 22.4008C7.12608 23.3723 6.53031 23.8646 5.79207 24.3957Z" fill="#6D6E71" stroke="#6D6E71" stroke-width="0.305328"/>
<path d="M10.48 23.2816C9.49568 24.2921 8.55021 25.2895 7.5918 26.2741C7.33277 26.5331 7.07373 26.7922 6.8147 27.0513C6.30959 27.5436 5.88219 27.6083 5.51955 27.2586C5.14395 26.8959 5.20871 26.4425 5.72677 25.9243C6.77585 24.875 7.82492 23.8128 8.88695 22.7764C9.05532 22.608 9.26255 22.4785 9.46977 22.3101C7.82492 20.0819 7.25506 17.7113 7.96739 15.1334C8.4207 13.4883 9.35321 12.0762 10.739 11.1176C14.1712 8.72111 18.3675 9.09678 21.0744 11.8819C23.8071 14.693 23.9237 19.1233 21.6701 22.0121C20.3361 23.735 18.5877 24.7455 16.4248 25.0045C14.2489 25.2507 12.3062 24.6807 10.48 23.2816ZM15.4922 11.1047C12.1378 11.0917 9.28845 13.9028 9.26255 17.232C9.2496 20.7167 12.0083 23.5148 15.4663 23.5148C18.8856 23.5148 21.696 20.7426 21.6572 17.2838C21.6442 14.0712 19.1187 11.0917 15.4922 11.1047Z" fill="#6D6E71" stroke="#6D6E71" stroke-width="0.305328"/>
<path d="M23.8208 14.5765C25.2843 14.5765 26.6701 14.5376 28.0689 14.6154C28.2891 14.6283 28.6517 15.0947 28.6647 15.3667C28.7165 16.6103 28.6906 17.8669 28.6129 19.1105C28.5999 19.3566 28.2243 19.7841 28.0042 19.797C26.6572 19.8618 25.2973 19.8229 23.8985 19.8229C23.9762 19.3825 24.0021 18.9809 24.1316 18.6312C24.1834 18.4757 24.4554 18.3073 24.6367 18.3073C25.2843 18.2684 25.9319 18.2814 26.5795 18.2943C26.968 18.3073 27.1234 18.1518 27.0975 17.7632C27.0716 17.271 27.0975 16.7787 27.0975 16.131C26.3075 16.131 25.5434 16.1051 24.7792 16.1439C24.2871 16.1699 24.0669 16.0015 24.041 15.5092C24.0021 15.2112 23.8985 14.9263 23.8208 14.5765Z" fill="#6D6E71" stroke="#6D6E71" stroke-width="0.305328"/>
<path d="M10.8954 24.7455C11.1415 24.875 11.5818 25.1212 12.1387 25.4191C11.1803 26.1057 10.2349 26.3907 9.19873 26.3259C9.72974 25.8207 10.2608 25.3284 10.8954 24.7455Z" fill="#6D6E71" stroke="#6D6E71" stroke-width="0.305328"/>
<path d="M20.5184 16.1309C17.954 16.1309 15.4026 16.1309 12.7475 16.1309C12.7475 16.8045 12.7087 17.4004 12.7734 17.9963C12.7864 18.1129 13.149 18.2683 13.3562 18.2813C15.4932 18.3072 17.6303 18.2942 19.7673 18.2942C20.0133 18.2942 20.2724 18.3201 20.635 18.3331C20.4925 18.7606 20.4278 19.1233 20.2465 19.4212C20.1299 19.6156 19.845 19.8228 19.6248 19.8228C17.1251 19.8487 14.6125 19.8487 12.1129 19.8358C11.4265 19.8358 11.1804 19.5767 11.1674 18.8901C11.1545 17.789 11.1545 16.6879 11.1674 15.5997C11.1804 14.8095 11.4265 14.5634 12.2295 14.5505C14.496 14.5375 16.7495 14.5246 19.0161 14.5116C20.0263 14.5116 20.4537 14.952 20.5184 16.1309Z" fill="#6D6E71" stroke="#6D6E71" stroke-width="0.305328"/>
</svg>
