<svg width="60" height="60" viewBox="0 0 60 60" fill="none" xmlns="http://www.w3.org/2000/svg">
<rect width="59.8443" height="59.8443" rx="7.32787" fill="#F1F0F2"/>
<path d="M15.7919 40.3957C15.2091 39.5666 15.0278 38.6858 15.0149 37.7401C15.0019 34.8643 14.963 32.0014 14.976 29.1256C14.976 28.4908 14.8335 28.2188 14.1471 28.2835C13.5254 28.3483 12.8908 28.3224 12.2691 28.3224C11.0387 28.3354 10.3264 27.584 10.3912 26.3275C10.4171 25.8481 10.3782 25.3688 10.43 24.9025C10.6372 23.1666 11.9583 21.8971 13.7067 21.9489C14.717 21.9878 15.4164 21.638 16.0639 20.9385C16.9187 20.0188 17.8383 19.1767 18.706 18.2699C19.9105 16.9875 21.3741 16.3527 23.1355 16.3657C27.6685 16.3786 32.2016 16.3786 36.7346 16.3657C38.4313 16.3657 39.843 16.9616 41.0086 18.1793C41.98 19.1897 43.0161 20.1353 43.9745 21.1717C44.5185 21.7546 45.1143 21.9748 45.9173 21.936C47.3937 21.8712 48.5076 22.5578 49.1163 23.918C49.5825 24.9414 49.5048 26.0425 49.3106 27.1047C49.1681 27.8561 48.4299 28.3354 47.6139 28.3354C46.8757 28.3354 46.1504 28.3354 45.4121 28.2965C44.9329 28.2706 44.7775 28.426 44.7905 28.9183C44.8293 31.833 44.8293 34.7347 44.8552 37.6494C44.8682 39.9812 43.5083 41.7818 41.3713 42.2482C39.2343 42.7016 37.2268 41.6134 36.3202 39.476C36.087 38.9319 35.7244 38.7117 35.1804 38.7117C34.2997 38.7117 33.419 38.7117 32.4217 38.7117C32.7326 38.1935 32.9787 37.7531 33.2506 37.3385C33.3154 37.2349 33.5097 37.1701 33.6392 37.1701C34.3515 37.1701 35.0639 37.1183 35.7762 37.209C36.8123 37.3385 37.434 37.9992 37.8225 38.9578C38.5737 40.7973 40.7755 41.3673 42.2649 40.1107C42.9125 39.5666 43.2751 38.8801 43.2751 38.0251C43.2622 35.0456 43.2363 32.0791 43.2104 29.0997C43.2104 28.6722 43.2233 28.2317 43.2363 27.8042C43.2492 26.9881 43.4824 26.742 44.3372 26.742C45.3085 26.729 46.2799 26.729 47.2513 26.742C47.6916 26.7549 47.8988 26.6124 47.847 26.159C47.8211 25.8352 47.86 25.5113 47.8341 25.1875C47.7823 24.2418 47.1217 23.5812 46.1892 23.5034C46.1504 23.5034 46.0986 23.4905 46.0597 23.5034C44.5573 23.8014 43.5212 23.0241 42.5758 22.0008C41.6951 21.0551 40.7496 20.1613 39.843 19.2415C39.0011 18.3736 37.9909 17.9461 36.7735 17.9461C32.2016 17.959 27.6167 17.959 23.0448 17.9461C21.8274 17.9461 20.8301 18.3736 19.9753 19.2415C18.7449 20.4722 17.4886 21.6769 16.2453 22.9075C15.8179 23.3221 15.3386 23.5553 14.7299 23.4775C14.6652 23.4646 14.6004 23.4775 14.5356 23.4775C12.4504 23.348 11.8547 24.2418 11.9712 26.2238C11.9971 26.6254 12.1396 26.742 12.5152 26.742C13.4477 26.729 14.3673 26.742 15.2998 26.742C16.4136 26.742 16.582 26.9104 16.582 27.9985C16.582 31.1464 16.582 34.2943 16.582 37.4422C16.582 37.766 16.5172 38.1287 16.6468 38.4008C17.126 39.3723 16.5302 39.8646 15.7919 40.3957Z" fill="#6D6E71" stroke="#6D6E71" stroke-width="0.305328"/>
<path d="M20.4797 39.2816C19.4954 40.2921 18.55 41.2895 17.5916 42.2741C17.3325 42.5331 17.0735 42.7922 16.8145 43.0513C16.3093 43.5436 15.8819 43.6083 15.5193 43.2586C15.1437 42.8959 15.2085 42.4425 15.7265 41.9243C16.7756 40.875 17.8247 39.8128 18.8867 38.7764C19.0551 38.608 19.2623 38.4785 19.4695 38.3101C17.8247 36.0819 17.2548 33.7113 17.9671 31.1334C18.4205 29.4883 19.353 28.0762 20.7388 27.1176C24.1709 24.7211 28.3672 25.0968 31.0741 27.8819C33.8069 30.693 33.9235 35.1233 31.6699 38.0121C30.3359 39.735 28.5874 40.7455 26.4245 41.0045C24.2487 41.2507 22.3059 40.6807 20.4797 39.2816ZM25.492 27.1047C22.1375 27.0917 19.2882 29.9028 19.2623 33.232C19.2494 36.7167 22.008 39.5148 25.4661 39.5148C28.8853 39.5148 31.6958 36.7426 31.6569 33.2838C31.644 30.0712 29.1184 27.0917 25.492 27.1047Z" fill="#6D6E71" stroke="#6D6E71" stroke-width="0.305328"/>
<path d="M33.8207 30.5765C35.2842 30.5765 36.67 30.5376 38.0688 30.6154C38.289 30.6283 38.6516 31.0947 38.6646 31.3667C38.7164 32.6103 38.6905 33.8669 38.6128 35.1105C38.5998 35.3566 38.2242 35.7841 38.004 35.797C36.6571 35.8618 35.2972 35.8229 33.8984 35.8229C33.9761 35.3825 34.002 34.9809 34.1315 34.6312C34.1833 34.4757 34.4553 34.3073 34.6366 34.3073C35.2842 34.2684 35.9318 34.2814 36.5794 34.2943C36.9679 34.3073 37.1233 34.1518 37.0974 33.7632C37.0715 33.271 37.0974 32.7787 37.0974 32.131C36.3074 32.131 35.5432 32.1051 34.7791 32.1439C34.2869 32.1699 34.0668 32.0015 34.0409 31.5092C34.002 31.2112 33.8984 30.9263 33.8207 30.5765Z" fill="#6D6E71" stroke="#6D6E71" stroke-width="0.305328"/>
<path d="M20.8953 40.7455C21.1413 40.875 21.5817 41.1212 22.1386 41.4191C21.1802 42.1057 20.2347 42.3907 19.1986 42.3259C19.7296 41.8207 20.2606 41.3284 20.8953 40.7455Z" fill="#6D6E71" stroke="#6D6E71" stroke-width="0.305328"/>
<path d="M30.5183 32.1309C27.9539 32.1309 25.4025 32.1309 22.7474 32.1309C22.7474 32.8045 22.7085 33.4004 22.7733 33.9963C22.7863 34.1129 23.1489 34.2683 23.3561 34.2813C25.4931 34.3072 27.6301 34.2942 29.7671 34.2942C30.0132 34.2942 30.2722 34.3201 30.6349 34.3331C30.4924 34.7606 30.4277 35.1233 30.2463 35.4212C30.1298 35.6156 29.8448 35.8228 29.6247 35.8228C27.125 35.8487 24.6124 35.8487 22.1128 35.8358C21.4263 35.8358 21.1803 35.5767 21.1673 34.8901C21.1544 33.789 21.1544 32.6879 21.1673 31.5998C21.1803 30.8095 21.4263 30.5634 22.2293 30.5505C24.4959 30.5375 26.7494 30.5246 29.0159 30.5116C30.0262 30.5116 30.4536 30.952 30.5183 32.1309Z" fill="#6D6E71" stroke="#6D6E71" stroke-width="0.305328"/>
</svg>
