<svg width="60" height="61" viewBox="0 0 60 61" fill="none" xmlns="http://www.w3.org/2000/svg">
<rect y="0.844238" width="59.8443" height="59.8443" rx="7.32787" fill="#F1F0F2"/>
<path d="M32.022 14.8993C32.5611 15.0665 33.1312 15.1657 33.6269 15.4135C35.3742 16.2995 36.3161 17.7431 36.409 19.7072C36.4524 20.5746 36.4276 21.442 36.4152 22.3094C36.409 23.0405 35.8638 23.5796 35.1636 23.5734C34.482 23.5672 33.9553 23.0343 33.9429 22.3156C33.9305 21.5535 33.9429 20.7853 33.9367 20.0232C33.9305 18.4371 32.8833 17.3838 31.2908 17.3838C27.2508 17.3838 23.2169 17.3838 19.1769 17.3838C17.572 17.3838 16.5248 18.4371 16.5248 20.0418C16.5248 27.1855 16.5248 34.3354 16.5248 41.4792C16.5248 43.1025 17.572 44.1434 19.2017 44.1496C23.2169 44.1496 27.2384 44.1496 31.2536 44.1496C32.8957 44.1496 33.9305 43.1087 33.9367 41.4544C33.9367 40.7295 33.9305 40.0108 33.9367 39.2859C33.9429 38.5052 34.4634 37.9538 35.1822 37.9538C35.8885 37.96 36.4152 38.5052 36.409 39.2735C36.4028 40.302 36.4524 41.3429 36.3409 42.3652C36.0868 44.6886 34.042 46.5288 31.6998 46.6155C30.9376 46.6465 30.1693 46.6279 29.4071 46.6279C25.9805 46.6279 22.5477 46.6279 19.1211 46.6279C16.8904 46.6279 15.0377 45.3516 14.3313 43.2822C14.1516 42.7555 14.0587 42.1731 14.0587 41.6155C14.0401 34.3788 14.0401 27.1359 14.0525 19.8993C14.0587 17.3714 15.8122 15.3577 18.3094 14.9612C18.359 14.955 18.4023 14.924 18.4457 14.9055C22.9753 14.8993 27.4986 14.8993 32.022 14.8993Z" fill="#6D6E71"/>
<path d="M27.4746 31.0083C27.7287 31.7456 28.2554 32.012 29.0237 32.0058C33.6896 31.9872 38.3555 31.9996 43.0214 31.9996C43.1391 31.9996 43.263 31.9996 43.4489 31.9996C43.0709 32.3776 42.7487 32.7059 42.4203 33.0281C42.0981 33.3503 41.7635 33.6601 41.4599 33.9947C40.9827 34.5213 40.9951 35.2462 41.4723 35.7233C41.9432 36.1942 42.6744 36.2313 43.1763 35.7543C44.1677 34.8063 45.1653 33.8584 46.0886 32.8423C47.2783 31.5349 47.2039 29.7939 45.9708 28.53C45.0847 27.6192 44.1801 26.7332 43.2692 25.8472C42.7177 25.3082 41.968 25.2958 41.4723 25.7976C40.9703 26.2995 40.9827 27.0492 41.5218 27.5944C42.0733 28.152 42.6372 28.7035 43.1887 29.2549C43.2568 29.323 43.325 29.3974 43.4365 29.5213C43.2568 29.5213 43.1391 29.5213 43.0214 29.5213C38.3555 29.5213 33.6896 29.5275 29.0237 29.5151C28.2554 29.5151 27.7287 29.7753 27.4746 30.5126C27.4746 30.6799 27.4746 30.8472 27.4746 31.0083Z" fill="#6D6E71"/>
</svg>
