<svg width="300" height="300" viewBox="0 0 202 202" fill="none" xmlns="http://www.w3.org/2000/svg">
<g filter="url(#filter0_d_124_427)">
<circle cx="101" cy="98" r="98" fill="white"/>
</g>
<path d="M64.23 81.3749C63.7175 81.6479 63.3075 81.6138 62.7267 81.2384C55.4153 76.4946 47.7281 75.9144 40.0408 79.9756C32.3536 84.0369 28.3904 90.726 28.3221 99.4286C28.2196 115.366 28.2879 131.338 28.2879 147.276C28.2879 149.29 28.9029 149.904 30.8503 149.904C43.8332 149.904 56.8161 149.904 69.799 149.904C71.7805 149.904 72.3614 149.256 72.3614 147.276C72.3614 132.703 72.3614 118.097 72.3614 103.524C72.3614 103.183 72.3955 102.841 72.3272 102.5C72.088 101.579 71.4731 100.999 70.5164 100.964C69.4915 100.93 68.8082 101.51 68.6032 102.5C68.5007 102.944 68.5348 103.422 68.5348 103.899C68.5348 117.414 68.5348 130.929 68.5348 144.478C68.5348 144.99 68.5348 145.467 68.5348 146.048C56.3719 146.048 44.3457 146.048 32.1486 146.048C32.1486 145.604 32.1486 145.194 32.1486 144.785C32.1486 129.734 32.1486 114.684 32.1486 99.5993C32.1486 88.9513 40.6217 80.863 51.2471 81.2384C54.1853 81.3408 57.8752 82.5352 59.686 84.0028C59.4127 84.1734 59.1393 84.3099 58.866 84.4805L64.23 81.3749Z" fill="#00AB53"/>
<path d="M50.2563 110.589C45.644 110.623 41.9883 114.309 42.0225 118.916C42.0566 123.489 45.7807 127.209 50.3247 127.209C54.937 127.209 58.6952 123.387 58.6269 118.779C58.5585 114.172 54.8687 110.554 50.2563 110.589ZM50.2905 123.352C47.8306 123.352 45.849 121.339 45.849 118.848C45.849 116.356 47.8306 114.411 50.3247 114.411C52.8187 114.411 54.8003 116.39 54.7662 118.882C54.7662 121.339 52.7504 123.352 50.2905 123.352Z" fill="#00AB53"/>
<path d="M149.78 97.4493C147.594 97.381 145.441 97.4152 143.255 97.4493C137.344 97.5517 133.347 101.613 133.347 107.517C133.347 120.793 133.347 134.035 133.347 147.31C133.347 149.29 133.962 149.904 135.943 149.904C142.913 149.904 149.849 149.904 156.818 149.938C157.946 149.938 158.766 149.597 159.483 148.778C159.483 134.342 159.483 119.94 159.483 105.504C159.415 105.367 159.312 105.231 159.278 105.06C158.048 100.384 154.632 97.5858 149.78 97.4493ZM137.173 145.979C137.173 145.536 137.173 145.194 137.173 144.853C137.173 132.396 137.173 119.974 137.173 107.517C137.173 103.661 139.531 101.34 143.391 101.272C145.305 101.238 147.218 101.272 149.165 101.272C153.368 101.306 155.623 103.558 155.623 107.79C155.623 120.076 155.623 132.328 155.623 144.614C155.623 145.024 155.623 145.467 155.623 145.979C149.404 145.979 143.323 145.979 137.173 145.979Z" fill="#00AB53"/>
<path d="M149.575 105.401C147.457 105.367 145.305 105.367 143.186 105.401C141.751 105.435 141.068 106.118 141.034 107.551C141 109.667 141 111.817 141.034 113.933C141.034 115.298 141.82 116.117 143.015 116.083C144.143 116.049 144.86 115.264 144.86 113.933C144.895 112.397 144.86 110.896 144.86 109.292C145.92 109.292 146.842 109.292 147.935 109.292C147.935 110.793 147.935 112.261 147.935 113.728C147.935 115.23 148.653 116.083 149.849 116.083C151.044 116.083 151.762 115.23 151.762 113.728C151.762 111.681 151.796 109.633 151.762 107.585C151.762 106.118 151.079 105.435 149.575 105.401Z" fill="#00AB53"/>
<path d="M50.1933 79.6373C45.6372 81.1929 43.3484 86.5235 45.2182 90.9367C45.7705 92.1854 46.7705 92.7067 47.8309 92.2835C48.8447 91.8734 49.2139 90.8672 48.831 89.596C47.632 85.8718 49.691 83.1125 53.545 82.807C56.1708 82.5958 58.1461 83.1941 59.9128 85.2799C61.8415 87.4956 64.09 89.4209 66.1787 91.4914C66.3836 91.6846 66.5551 91.9372 66.8756 92.2733C63.6001 92.316 60.4772 92.366 57.4008 92.4029C56.1762 92.421 54.9219 92.4224 53.6973 92.4405C52.227 92.4775 51.4443 93.1737 51.4195 94.3338C51.4079 95.5403 52.2443 96.283 53.7444 96.2627C61.1515 96.1875 68.5754 96.0825 76.029 95.9942C104.911 95.6273 133.777 95.2901 162.646 94.8766C163.794 94.8549 165.072 94.6713 166.107 94.1551C168.142 93.1824 169.131 91.3501 169.164 89.0597C169.172 87.3029 169.132 85.5591 169.093 83.8154C169.037 79.8705 166.654 77.5567 162.721 77.5834C148.514 77.8392 134.34 78.0354 120.183 78.2018C104.877 78.39 89.5714 78.5781 74.2491 78.7961C74.1728 78.7925 74.0965 78.7888 74.05 78.8019L67.8507 78.8888C63.3208 78.9329 58.8374 78.9639 54.3504 79.0712C52.9434 79.0653 51.4695 79.1785 50.1933 79.6373ZM163.388 81.5574C164.414 81.5451 165.144 82.2674 165.183 83.3847C165.257 85.3441 165.302 87.2868 165.254 89.2556C165.216 90.3692 164.543 91.0095 163.375 91.1372C160.686 91.3912 158.131 91.4071 156.406 88.758C155.994 88.0966 155.236 87.6327 154.681 87.0867C152.942 85.369 151.204 83.6513 149.231 81.7238C154.146 81.6216 158.769 81.5514 163.388 81.5574ZM143.218 81.7584C143.523 81.773 143.914 81.9138 144.119 82.1069C147.16 85.0632 150.2 88.0194 153.429 91.1985C149.45 91.2383 145.806 91.3093 142.119 91.3172C141.691 91.3121 141.188 90.952 140.821 90.6289C138.144 88.072 135.53 85.4722 132.869 82.8855C132.592 82.6125 132.361 82.3265 131.908 81.8771C135.917 81.854 139.561 81.783 143.218 81.7584ZM125.891 81.9879C126.319 81.993 126.822 82.3531 127.189 82.6762C129.909 85.2963 132.613 87.9462 135.316 90.596C135.521 90.7892 135.722 91.0585 136.026 91.4244C132.2 91.4714 128.602 91.5294 124.992 91.5409C124.64 91.5394 124.202 91.4116 123.968 91.2018C120.927 88.2455 117.886 85.2893 114.628 82.0935C118.59 82.0835 122.251 81.9827 125.891 81.9879ZM98.8309 82.3194C101.28 82.2832 103.722 82.3994 106.119 82.1774C108.253 82.004 109.788 82.5507 111.271 84.1645C113.583 86.6736 116.149 89.0113 118.677 91.4847C118.428 91.5798 118.331 91.6822 118.225 91.6618C114.674 91.7067 111.153 91.7683 107.602 91.8132C107.326 91.8153 106.978 91.7376 106.803 91.5612C103.733 88.5883 100.649 85.5689 97.4035 82.4195C98.0176 82.3724 98.4028 82.3143 98.8309 82.3194ZM89.7115 82.3742C91.245 82.2944 92.3118 82.6966 93.4056 83.8183C95.9862 86.4776 98.71 89.0215 101.529 91.8144C100.868 91.8746 100.453 91.916 100.025 91.9109C97.5463 91.9304 95.0579 91.8272 92.6313 92.0326C90.5266 92.2227 89.0425 91.5867 87.6319 90.0527C85.2897 87.527 82.7541 85.2059 80.0507 82.5561C83.4955 82.4909 86.5981 82.5469 89.7115 82.3742ZM74.004 82.6502C74.3558 82.6517 74.7599 82.839 75.0077 83.0953C78.0352 86.0051 81.0294 88.9744 84.2452 92.107C80.2662 92.1468 76.6222 92.2178 72.952 92.1959C72.5538 92.2075 72.064 91.8939 71.7565 91.6042C69.314 89.257 66.8882 86.8801 64.4325 84.4866C63.9071 83.9573 63.4115 83.4448 62.7407 82.7558C66.7197 82.716 70.3637 82.645 74.004 82.6502Z" fill="#00AB53"/>
<defs>
<filter id="filter0_d_124_427" x="0.351351" y="0" width="201.297" height="201.297" filterUnits="userSpaceOnUse" color-interpolation-filters="sRGB">
<feFlood flood-opacity="0" result="BackgroundImageFix"/>
<feColorMatrix in="SourceAlpha" type="matrix" values="0 0 0 0 0 0 0 0 0 0 0 0 0 0 0 0 0 0 127 0" result="hardAlpha"/>
<feOffset dy="2.64865"/>
<feGaussianBlur stdDeviation="1.32432"/>
<feComposite in2="hardAlpha" operator="out"/>
<feColorMatrix type="matrix" values="0 0 0 0 0 0 0 0 0 0 0 0 0 0 0 0 0 0 0.25 0"/>
<feBlend mode="normal" in2="BackgroundImageFix" result="effect1_dropShadow_124_427"/>
<feBlend mode="normal" in="SourceGraphic" in2="effect1_dropShadow_124_427" result="shape"/>
</filter>
</defs>
</svg>
