<svg width="202" height="202" viewBox="0 0 202 202" fill="none" xmlns="http://www.w3.org/2000/svg">
<g filter="url(#filter0_d_140_838)">
<circle cx="101" cy="98" r="98" fill="white"/>
</g>
<g clip-path="url(#clip0_140_838)">
<path d="M43.1408 158C41.5207 157.204 40.9855 155.902 41 154.108C41.0578 145.515 41.0289 136.922 41.0289 128.329C41.0289 125.262 42.6345 123.642 45.73 123.627C48.4204 123.613 51.0964 123.627 53.8592 123.627C53.8592 118.94 53.8592 114.354 53.8592 109.624C52.2391 109.624 50.648 109.624 49.0569 109.624C47.6104 109.624 46.1639 109.682 44.7319 109.566C42.5911 109.378 41.0578 107.714 41.0434 105.573C41 100.958 41.0144 96.358 41.0434 91.7432C41.0578 89.443 42.7647 87.6925 45.0357 87.6781C54.6403 87.6491 64.2449 87.6491 73.8495 87.6781C76.0048 87.6781 77.755 89.3851 77.784 91.5406C77.8563 96.2712 77.8563 100.987 77.784 105.718C77.7406 108.004 75.9469 109.551 73.4879 109.595C71.1012 109.638 68.729 109.609 66.3423 109.609C65.9228 109.609 65.4889 109.609 64.9971 109.609C64.9971 114.297 64.9971 118.882 64.9971 123.613C67.6731 123.613 70.3057 123.642 72.9527 123.57C73.2276 123.555 73.6036 123.005 73.7194 122.629C75.8023 116.105 79.6499 110.897 85.3057 107.063C90.296 103.678 95.836 102.087 101.868 102.159C103.343 102.174 104.819 102.159 106.395 102.159C106.395 101.233 106.439 100.467 106.366 99.6998C106.337 99.4249 106.077 99.0632 105.831 98.933C99.134 95.1717 95.5612 89.4575 95.1273 81.7902C95.1273 81.7613 95.0839 81.7179 94.9537 81.5009C94.3896 81.5009 93.7097 81.5153 93.0154 81.5009C89.5005 81.4141 87.2584 79.1428 87.2295 75.6419C87.215 74.5135 87.2295 73.3707 87.2295 72.2423C87.2295 68.1048 88.6615 66.3255 92.7984 65.4864C92.7984 62.7233 92.7406 59.9168 92.8129 57.1247C92.8563 55.49 92.9431 53.8408 93.2902 52.2495C95.0839 44.0614 102.446 38.1157 110.822 38.0289C114.77 37.9855 118.705 37.9855 122.654 38.0289C132.418 38.1302 140.446 46.0723 140.648 55.8227C140.72 59.0198 140.662 62.217 140.662 65.3417C140.807 65.4719 140.865 65.5587 140.923 65.5732C144.756 66.2531 146.275 68.0614 146.275 71.9674C146.275 73.2983 146.289 74.6292 146.275 75.9457C146.217 79.0126 144.12 81.2405 141.039 81.4719C140.185 81.5298 139.332 81.4864 138.522 81.4864C138.218 83.2224 138.044 84.8571 137.625 86.4195C136.28 91.5696 133.242 95.49 128.729 98.2965C126.834 99.4683 126.747 99.6274 127.239 102.174C128.715 102.174 130.233 102.159 131.738 102.174C142.442 102.289 150.716 106.861 156.574 115.787C158.946 119.389 160.291 123.41 160.783 127.707C160.812 127.967 160.928 128.228 161 128.474C161 137.617 161 146.759 161 155.888C160.291 156.597 159.597 157.291 158.888 158C133.589 158 108.276 158 82.9768 158C82.08 157.494 81.5014 156.785 81.8341 155.7C82.1813 154.615 83.0926 154.412 84.1051 154.47C84.3799 154.485 84.6548 154.47 84.9296 154.47C108.637 154.47 132.331 154.47 156.039 154.47C156.487 154.47 156.95 154.47 157.413 154.47C157.413 151.866 157.413 149.392 157.413 146.832C156.863 146.832 156.4 146.832 155.937 146.832C148.083 146.832 140.243 146.832 132.389 146.832C130.841 146.832 130.103 146.268 130.074 145.125C130.045 143.953 130.826 143.331 132.418 143.316C133.517 143.302 134.602 143.316 135.701 143.316C137.09 143.316 138.478 143.316 139.881 143.316C139.881 137.834 139.881 132.539 139.881 127.128C139.361 127.128 138.898 127.128 138.435 127.128C127.933 127.128 117.432 127.128 106.916 127.128C105.47 127.128 104.746 126.55 104.717 125.45C104.689 124.293 105.455 123.656 106.931 123.627C107.249 123.613 107.553 123.627 107.871 123.627C115.45 123.627 123.015 123.627 130.595 123.627C131.043 123.627 131.506 123.627 131.998 123.627C131.998 117.58 131.998 111.693 131.998 105.79C130.32 105.79 128.715 105.79 127.138 105.79C126.53 111.664 122.958 115.425 117.519 115.946C115.147 116.177 112.948 115.541 110.981 114.21C108.015 112.184 106.569 109.277 106.352 105.776C104.544 105.776 102.837 105.776 101.058 105.776C101.058 106.253 101.058 106.629 101.058 107.02C101.058 110.333 101.058 113.66 101.058 116.973C101.058 117.248 101.072 117.523 101.058 117.797C101.014 118.969 100.306 119.75 99.3076 119.75C98.3095 119.75 97.5574 118.969 97.5574 117.797C97.5284 114.282 97.5429 110.767 97.5429 107.251C97.5429 106.846 97.5429 106.441 97.5429 105.92C96.2845 106.224 95.2285 106.499 94.1726 106.716C93.3915 106.875 93.1456 107.295 93.1601 108.105C93.2179 111.114 93.189 114.123 93.1745 117.132C93.1745 118.897 92.567 119.779 91.3954 119.75C90.2526 119.721 89.674 118.868 89.6596 117.175C89.6596 114.759 89.6596 112.329 89.6596 109.913C89.6596 109.551 89.6162 109.19 89.5728 108.611C83.4108 112.083 79.3317 116.958 77.1475 123.642C77.784 123.642 78.2035 123.642 78.6374 123.642C84.1774 123.642 89.7319 123.671 95.2719 123.627C96.458 123.613 97.3115 123.989 98.107 124.915C103.126 130.788 108.218 136.618 113.237 142.492C113.801 143.157 114.394 143.389 115.233 143.374C117.62 143.316 119.992 143.36 122.379 143.36C122.726 143.36 123.088 143.345 123.435 143.389C124.462 143.504 125.156 144.213 125.142 145.125C125.142 146.036 124.447 146.759 123.42 146.846C122.958 146.89 122.48 146.875 122.017 146.875C96.7473 146.875 71.4918 146.875 46.2218 146.875C45.6866 146.875 45.1658 146.875 44.6306 146.875C44.6306 149.508 44.6306 151.953 44.6306 154.514C45.108 154.514 45.5275 154.514 45.9469 154.514C55.161 154.514 64.3751 154.514 73.5892 154.499C74.6017 154.499 75.4985 154.629 75.8746 155.7C76.2507 156.785 75.6143 157.465 74.7898 158.029C64.2305 158 53.6856 158 43.1408 158ZM98.6567 69.103C98.6567 73.4141 98.6133 77.5515 98.6712 81.6745C98.7435 88.1265 102.823 93.9566 108.797 96.4303C112.167 97.8191 115.653 97.8047 119.168 97.6166C128.194 97.1247 134.746 90.1808 134.804 81.1537C134.833 77.5226 134.804 73.8915 134.804 70.2604C134.804 69.9132 134.761 69.5804 134.746 69.3056C132.707 68.9873 130.725 68.7848 128.801 68.3652C124.664 67.4828 121.178 65.2694 117.851 62.7667C117.041 62.1591 116.492 62.0868 115.638 62.7522C110.691 66.6003 105.209 69.1464 98.6567 69.103ZM137.133 65.5587C137.133 62.2893 137.191 59.0922 137.119 55.9095C136.945 48.0397 130.45 41.6455 122.581 41.5587C118.676 41.5153 114.77 41.5153 110.879 41.5587C104.067 41.6311 97.7888 46.5642 96.7039 53.2622C96.0675 57.2549 96.3134 61.4068 96.1687 65.5732C99.134 65.7179 101.781 65.5009 104.399 64.8354C108.232 63.8517 111.328 61.5226 114.496 59.3092C116.289 58.0651 117.143 58.0795 118.965 59.2947C120.976 60.6401 122.943 62.0723 125.055 63.2296C128.758 65.2405 132.823 65.8191 137.133 65.5587ZM81.6461 143.273C81.6461 137.891 81.6461 132.568 81.6461 127.23C81.3712 127.201 81.1687 127.157 80.9807 127.157C69.2353 127.157 57.4899 127.157 45.7444 127.143C44.8476 127.143 44.5149 127.461 44.5294 128.387C44.5583 133.074 44.5439 137.747 44.5439 142.434C44.5439 142.694 44.5872 142.969 44.6017 143.273C56.9691 143.273 69.2787 143.273 81.6461 143.273ZM157.485 143.273C157.485 139.078 157.528 135.013 157.471 130.962C157.369 123.599 154.578 117.392 149.211 112.358C147.548 110.796 145.696 109.465 143.498 108.438C143.498 120.141 143.498 131.671 143.498 143.259C148.17 143.273 152.755 143.273 157.485 143.273ZM64.9537 106.108C67.6875 106.108 70.3346 106.08 72.9817 106.123C74.0231 106.137 74.3124 105.747 74.3124 104.749C74.269 100.727 74.2546 96.7052 74.3124 92.6835C74.3269 91.5117 73.9942 91.15 72.7936 91.15C63.8544 91.1934 54.9296 91.179 45.9903 91.179C45.8023 91.179 45.5419 91.1066 45.4117 91.1934C45.0935 91.4249 44.5728 91.7287 44.5728 92.0036C44.5149 96.4159 44.5149 100.828 44.5728 105.226C44.5728 105.515 45.0357 106.036 45.2816 106.036C48.1167 106.094 50.9662 106.08 53.8447 106.08C54.1196 104.025 53.4397 101.884 55.0308 100.192C56.6654 98.4557 58.7772 98.8752 60.7589 98.962C61.6991 99.0054 62.755 99.4249 63.5072 100.004C65.46 101.551 64.7657 103.866 64.9537 106.108ZM109.216 143.302C108.825 142.825 108.594 142.521 108.348 142.231C104.732 138.036 101 133.928 97.5284 129.602C96.0096 127.707 94.4474 126.853 92.0173 127.099C89.8187 127.331 87.5911 127.143 85.3346 127.143C85.3346 132.611 85.3346 137.935 85.3346 143.287C93.2758 143.302 101.116 143.302 109.216 143.302ZM109.896 100.582C109.896 102.391 109.867 104.098 109.896 105.819C109.968 109.378 112.702 112.184 116.333 112.474C119.616 112.734 122.943 110.275 123.391 106.919C123.666 104.864 123.449 102.738 123.449 100.597C118.965 101.421 114.525 101.421 109.896 100.582ZM61.3954 123.57C61.3954 123.078 61.3954 122.673 61.3954 122.253C61.3954 116.481 61.3954 110.709 61.3954 104.922C61.3954 102.101 61.6991 102.506 58.8929 102.419C57.7647 102.376 57.432 102.767 57.432 103.881C57.4754 110.043 57.4609 116.206 57.4609 122.369C57.4609 122.745 57.4609 123.121 57.4609 123.555C58.8062 123.57 60.0357 123.57 61.3954 123.57ZM135.643 105.863C135.643 111.881 135.643 117.696 135.643 123.541C137.104 123.541 138.478 123.541 139.881 123.541C139.881 117.971 139.881 112.474 139.881 106.861C138.507 106.528 137.119 106.21 135.643 105.863ZM138.391 77.9276C139.332 77.9276 140.229 78.0144 141.096 77.9132C142.109 77.7974 142.702 77.103 142.731 76.0759C142.774 74.3978 142.774 72.7197 142.731 71.0415C142.702 69.9276 141.993 69.2332 140.894 69.1609C140.084 69.103 139.274 69.1464 138.391 69.1464C138.391 72.0831 138.391 74.9186 138.391 77.9276ZM95.0839 69.132C94.2449 69.132 93.5217 69.103 92.784 69.132C91.5689 69.1898 90.8023 69.8987 90.7589 71.1139C90.701 72.7486 90.701 74.3978 90.7734 76.0325C90.8168 77.0162 91.352 77.7685 92.3934 77.8987C93.2613 78 94.1581 77.9132 95.0983 77.9132C95.0839 74.9909 95.0839 72.1555 95.0839 69.132Z" fill="#2F5EAB"/>
<path d="M116.738 90.5135C114.51 90.5425 112.543 89.7757 110.72 88.5461C109.852 87.9674 109.65 87.0126 110.127 86.188C110.634 85.32 111.574 85.0886 112.572 85.5804C113.02 85.8119 113.454 86.0868 113.903 86.3038C115.855 87.2441 117.808 87.2007 119.746 86.217C120.122 86.0289 120.484 85.783 120.86 85.5804C121.858 85.0741 122.798 85.3056 123.305 86.1591C123.811 86.9981 123.565 87.9819 122.639 88.5895C120.86 89.8047 118.922 90.5425 116.738 90.5135Z" fill="#2F5EAB"/>
<path d="M125.46 78.2894C124.491 78.2749 123.695 77.4214 123.739 76.4521C123.782 75.5118 124.563 74.7885 125.503 74.8029C126.444 74.8174 127.21 75.5841 127.239 76.4955C127.254 77.4503 126.415 78.3039 125.46 78.2894Z" fill="#2F5EAB"/>
<path d="M109.693 76.481C109.722 77.4647 108.912 78.2893 107.958 78.2893C107.061 78.2748 106.236 77.4792 106.207 76.5822C106.178 75.613 106.988 74.8029 107.972 74.8029C108.912 74.8029 109.679 75.5407 109.693 76.481Z" fill="#2F5EAB"/>
</g>
<defs>
<filter id="filter0_d_140_838" x="0.351351" y="0" width="201.297" height="201.297" filterUnits="userSpaceOnUse" color-interpolation-filters="sRGB">
<feFlood flood-opacity="0" result="BackgroundImageFix"/>
<feColorMatrix in="SourceAlpha" type="matrix" values="0 0 0 0 0 0 0 0 0 0 0 0 0 0 0 0 0 0 127 0" result="hardAlpha"/>
<feOffset dy="2.64865"/>
<feGaussianBlur stdDeviation="1.32432"/>
<feComposite in2="hardAlpha" operator="out"/>
<feColorMatrix type="matrix" values="0 0 0 0 0 0 0 0 0 0 0 0 0 0 0 0 0 0 0.25 0"/>
<feBlend mode="normal" in2="BackgroundImageFix" result="effect1_dropShadow_140_838"/>
<feBlend mode="normal" in="SourceGraphic" in2="effect1_dropShadow_140_838" result="shape"/>
</filter>
<clipPath id="clip0_140_838">
<rect width="120" height="120" fill="white" transform="translate(41 38)"/>
</clipPath>
</defs>
</svg>
