<svg width="202" height="202" viewBox="0 0 202 202" fill="none" xmlns="http://www.w3.org/2000/svg">
<g filter="url(#filter0_d_118_1134)">
<circle cx="101" cy="98" r="98" fill="white"/>
</g>
<path d="M133.98 44.1927H67.0386C65.9752 44.1927 65.0713 43.3435 65.0713 42.229V37.7711C65.0713 36.6566 65.922 35.8074 67.0386 35.8074H134.033C135.096 35.8074 136 36.6566 136 37.7711V42.2821C135.947 43.3435 135.043 44.1927 133.98 44.1927Z" fill="#9D9D9B"/>
<path d="M133.98 152.193H67.0386C65.9752 152.193 65.0713 151.343 65.0713 150.229V145.718C65.0713 144.656 65.922 143.754 67.0386 143.754H134.033C135.096 143.754 136 144.603 136 145.718V150.229C135.947 151.29 135.043 152.193 133.98 152.193Z" fill="#9D9D9B"/>
<path d="M97.6112 92.859C97.6112 92.859 66.879 80.5464 70.335 44.1927C80.2778 44.1927 132.065 44.1927 132.065 44.1927C132.065 44.1927 137.701 77.6806 105.268 92.859V94.7165H97.7176L97.6112 92.859Z" fill="#9D9D9B" fill-opacity="0.36"/>
<path d="M105.268 95.141C105.268 95.141 136 107.454 132.544 143.807C122.601 143.807 70.8134 143.807 70.8134 143.807C70.8134 143.807 65.1773 110.319 97.611 95.141L97.7491 94.6968H105.268V95.141Z" fill="#9D9D9B" fill-opacity="0.36"/>
<path opacity="0.31" d="M101.971 90.5238C101.971 90.5238 130.311 81.8732 129.62 44.2457C106.278 44.2457 73.4192 44.2457 73.4192 44.2457C73.4192 44.2457 71.9836 80.7587 101.971 90.5238Z" fill="white"/>
<path d="M73.6847 142.162C73.472 138.447 73.5252 134.679 73.6847 130.964C73.791 129 73.9506 127.037 74.2696 125.126C74.5886 123.216 74.9076 120.827 76.2369 119.288C77.0876 118.28 78.3105 117.696 79.4271 117.059C80.65 116.37 81.8729 115.68 83.0958 114.99C84.0529 114.512 85.0631 113.981 86.0733 113.716C87.1367 113.398 88.3065 113.344 89.423 113.238C89.9547 113.185 90.5396 113.132 91.0181 112.973C92.0283 112.655 92.8791 111.912 93.6766 111.222C94.5805 110.426 95.5907 109.789 96.601 109.152C98.1429 108.143 100.004 107.347 101.865 107.4C103.726 107.454 105.587 108.462 107.075 109.523C108.298 110.372 109.468 111.328 110.797 112.071C111.861 112.655 113.03 113.132 114.2 113.398C116.593 113.928 119.092 113.822 121.378 114.777C123.611 115.733 125.685 116.104 126.802 118.439C130.311 125.922 130.417 134.148 129.407 142.215C129.46 142.162 73.6847 142.162 73.6847 142.162Z" fill="#9D9D9B"/>
<path opacity="0.23" d="M101.28 96.6801C101.28 96.6801 67.2514 106.18 73.685 142.162C98.9407 142.162 129.46 142.162 129.46 142.162C129.46 142.162 137.01 109.895 101.28 96.6801Z" fill="#C6C6C6"/>
<defs>
<filter id="filter0_d_118_1134" x="0.351351" y="0" width="201.297" height="201.297" filterUnits="userSpaceOnUse" color-interpolation-filters="sRGB">
<feFlood flood-opacity="0" result="BackgroundImageFix"/>
<feColorMatrix in="SourceAlpha" type="matrix" values="0 0 0 0 0 0 0 0 0 0 0 0 0 0 0 0 0 0 127 0" result="hardAlpha"/>
<feOffset dy="2.64865"/>
<feGaussianBlur stdDeviation="1.32432"/>
<feComposite in2="hardAlpha" operator="out"/>
<feColorMatrix type="matrix" values="0 0 0 0 0 0 0 0 0 0 0 0 0 0 0 0 0 0 0.25 0"/>
<feBlend mode="normal" in2="BackgroundImageFix" result="effect1_dropShadow_118_1134"/>
<feBlend mode="normal" in="SourceGraphic" in2="effect1_dropShadow_118_1134" result="shape"/>
</filter>
</defs>
</svg>
