<svg width="19" height="36" viewBox="0 0 19 36" fill="none" xmlns="http://www.w3.org/2000/svg">
    <path d="M11.0257 32.6387C6.61162 32.6387 3.03192 29.054 3.03192 24.6338L3.04466 14.7346C3.04466 14.709 3.04466 14.6835 3.04466 14.6516C3.04466 13.7587 2.36311 13.0251 1.52233 13.0251C0.681544 13.0251 0 13.7587 0 14.6516C0 14.6771 0 14.709 0 14.7346V24.6338C0 29.2581 2.84083 33.2127 6.8664 34.8584C16.9112 38.2389 18.2488 28.0654 18.2488 28.0654C16.9622 30.7698 14.2169 32.6387 11.0257 32.6387Z" fill="#00AB54"/>
    <path d="M16.1342 13.1464C15.4718 13.4271 15.2043 14.0585 15.2043 14.7346C15.2043 16.0039 15.2234 24.8125 15.1342 25.3546C14.7839 27.4085 12.9049 28.9202 10.8347 28.8245C8.77737 28.7288 7.04485 27.0768 6.86013 25.023V4.72693L3.80273 8.27969V23.9514C3.80273 24.9082 3.83458 25.8522 4.12121 26.7834C4.70721 28.6905 6.09578 30.2979 7.88563 31.1654C9.73918 32.0583 11.943 32.1157 13.8348 31.3121C15.6692 30.5339 17.1279 28.9967 17.8094 27.1278C18.1916 26.0754 18.2426 25.0038 18.2426 23.9004V14.5496C18.2489 13.4781 17.1215 12.7254 16.1342 13.1464Z" fill="#2F5FAC"/>
    <path d="M14.4592 8.45825L11.4018 4.90549L11.4081 24.519C11.4081 24.7295 11.2361 24.8954 11.0323 24.8954C10.8221 24.8954 10.6565 24.7231 10.6565 24.519L10.6629 4.00613L7.59912 0.453369C7.59912 0.453369 7.61186 24.4744 7.61186 24.519C7.61186 26.4134 9.14693 27.9442 11.0323 27.9442C12.7139 27.9442 14.1152 26.726 14.3955 25.1186C14.4273 24.9974 14.4464 24.8635 14.4464 24.7295H14.4528C14.4464 24.3659 14.4592 8.45825 14.4592 8.45825Z" fill="#2F5FAC"/>
</svg>
