<svg width="60" height="60" viewBox="0 0 60 60" fill="none" xmlns="http://www.w3.org/2000/svg">
<rect width="59.8443" height="59.8443" rx="7.32787" fill="#F1F0F2"/>
<path d="M27.7998 45.7892C27.2607 45.6219 26.6906 45.5228 26.1949 45.275C24.4475 44.389 23.5057 42.9453 23.4127 40.9813C23.3694 40.1139 23.3941 39.2465 23.4065 38.3791C23.4127 37.6479 23.958 37.1089 24.6582 37.1151C25.3398 37.1213 25.8665 37.6541 25.8789 38.3729C25.8913 39.1349 25.8789 39.9032 25.8851 40.6653C25.8913 42.2514 26.9385 43.3047 28.531 43.3047C32.571 43.3047 36.6048 43.3047 40.6449 43.3047C42.2498 43.3047 43.297 42.2514 43.297 40.6467C43.297 33.503 43.297 26.353 43.297 19.2093C43.297 17.586 42.2498 16.5451 40.6201 16.5389C36.6048 16.5389 32.5834 16.5389 28.5681 16.5389C26.9261 16.5389 25.8913 17.5798 25.8851 19.2341C25.8851 19.959 25.8913 20.6777 25.8851 21.4026C25.8789 22.1833 25.3584 22.7347 24.6396 22.7347C23.9332 22.7285 23.4065 22.1833 23.4127 21.415C23.4189 20.3865 23.3694 19.3456 23.4809 18.3233C23.7349 15.9999 25.7798 14.1597 28.122 14.073C28.8841 14.042 29.6525 14.0606 30.4147 14.0606C33.8413 14.0606 37.2741 14.0606 40.7007 14.0606C42.9314 14.0606 44.7841 15.3369 45.4905 17.4063C45.6702 17.933 45.7631 18.5154 45.7631 19.073C45.7817 26.3097 45.7817 33.5525 45.7693 40.7892C45.7631 43.3171 44.0095 45.3307 41.5124 45.7273C41.4628 45.7335 41.4194 45.7644 41.3761 45.783C36.8465 45.7892 32.3231 45.7892 27.7998 45.7892Z" fill="#6D6E71"/>
<path d="M14.0437 29.6802C14.2978 28.9429 14.8244 28.6765 15.5928 28.6827C20.2587 28.7012 24.9246 28.6888 29.5904 28.6888C29.7082 28.6888 29.8321 28.6888 30.018 28.6888C29.64 28.3109 29.3178 27.9825 28.9894 27.6603C28.6672 27.3382 28.3326 27.0284 28.029 26.6938C27.5518 26.1672 27.5642 25.4423 28.0413 24.9652C28.5123 24.4943 29.2434 24.4571 29.7454 24.9342C30.7368 25.8822 31.7344 26.8301 32.6577 27.8462C33.8474 29.1535 33.773 30.8945 32.5399 32.1585C31.6538 33.0693 30.7492 33.9553 29.8383 34.8413C29.2868 35.3803 28.5371 35.3927 28.0413 34.8908C27.5394 34.389 27.5518 33.6393 28.0909 33.0941C28.6424 32.5364 29.2063 31.985 29.7577 31.4336C29.8259 31.3654 29.8941 31.2911 30.0056 31.1672C29.8259 31.1672 29.7082 31.1672 29.5904 31.1672C24.9246 31.1672 20.2587 31.161 15.5928 31.1734C14.8244 31.1734 14.2978 30.9131 14.0437 30.1758C14.0437 30.0086 14.0437 29.8413 14.0437 29.6802Z" fill="#6D6E71"/>
</svg>
