<svg width="42" height="42" viewBox="0 0 42 42" fill="none" xmlns="http://www.w3.org/2000/svg">
<path d="M23.022 4.89926C23.5611 5.06655 24.1312 5.16568 24.6269 5.41351C26.3742 6.29951 27.3161 7.74313 27.409 9.70719C27.4524 10.5746 27.4276 11.442 27.4152 12.3094C27.409 13.0405 26.8638 13.5796 26.1636 13.5734C25.482 13.5672 24.9553 13.0343 24.9429 12.3156C24.9305 11.5535 24.9429 10.7853 24.9367 10.0232C24.9305 8.43706 23.8833 7.38377 22.2908 7.38377C18.2508 7.38377 14.2169 7.38377 10.1769 7.38377C8.57202 7.38377 7.52483 8.43705 7.52483 10.0418C7.52483 17.1855 7.52483 24.3354 7.52483 31.4792C7.52483 33.1025 8.57202 34.1434 10.2017 34.1496C14.2169 34.1496 18.2384 34.1496 22.2536 34.1496C23.8957 34.1496 24.9305 33.1087 24.9367 31.4544C24.9367 30.7295 24.9305 30.0108 24.9367 29.2859C24.9429 28.5052 25.4634 27.9538 26.1822 27.9538C26.8885 27.96 27.4152 28.5052 27.409 29.2735C27.4028 30.302 27.4524 31.3429 27.3409 32.3652C27.0868 34.6886 25.042 36.5288 22.6998 36.6155C21.9376 36.6465 21.1693 36.6279 20.4071 36.6279C16.9805 36.6279 13.5477 36.6279 10.1211 36.6279C7.89041 36.6279 6.03769 35.3516 5.3313 33.2822C5.15161 32.7555 5.05866 32.1731 5.05866 31.6155C5.04007 24.3788 5.04008 17.1359 5.05247 9.89926C5.05866 7.37138 6.81225 5.35775 9.30939 4.96122C9.35896 4.95502 9.40234 4.92404 9.44571 4.90545C13.9753 4.89926 18.4986 4.89926 23.022 4.89926Z" fill="#6D6E71"/>
<path d="M18.4746 21.0083C18.7287 21.7456 19.2554 22.012 20.0237 22.0058C24.6896 21.9872 29.3555 21.9996 34.0214 21.9996C34.1391 21.9996 34.263 21.9996 34.4489 21.9996C34.0709 22.3776 33.7487 22.7059 33.4203 23.0281C33.0981 23.3503 32.7635 23.6601 32.4599 23.9947C31.9827 24.5213 31.9951 25.2462 32.4723 25.7233C32.9432 26.1942 33.6744 26.2313 34.1763 25.7543C35.1677 24.8063 36.1653 23.8584 37.0886 22.8423C38.2783 21.5349 38.2039 19.7939 36.9708 18.53C36.0847 17.6192 35.1801 16.7332 34.2692 15.8472C33.7177 15.3082 32.968 15.2958 32.4723 15.7976C31.9703 16.2995 31.9827 17.0492 32.5218 17.5944C33.0733 18.152 33.6372 18.7035 34.1887 19.2549C34.2568 19.323 34.325 19.3974 34.4365 19.5213C34.2568 19.5213 34.1391 19.5213 34.0214 19.5213C29.3555 19.5213 24.6896 19.5275 20.0237 19.5151C19.2554 19.5151 18.7287 19.7753 18.4746 20.5126C18.4746 20.6799 18.4746 20.8472 18.4746 21.0083Z" fill="#6D6E71"/>
</svg>
