<svg width="34" height="34" viewBox="0 0 34 34" fill="none" xmlns="http://www.w3.org/2000/svg">
<path d="M16.3251 29.3625H6.99136C5.47411 29.3625 4.24414 28.1326 4.24414 26.6153V10.132C4.24414 8.61474 5.47411 7.38477 6.99136 7.38477H23.4747C24.9919 7.38477 26.2219 8.61474 26.2219 10.132V15.6264" stroke="#4B465C" stroke-width="2.06042" stroke-linecap="round" stroke-linejoin="round"/>
<path d="M16.3251 29.3625H6.99136C5.47411 29.3625 4.24414 28.1326 4.24414 26.6153V10.132C4.24414 8.61474 5.47411 7.38477 6.99136 7.38477H23.4747C24.9919 7.38477 26.2219 8.61474 26.2219 10.132V15.6264" stroke="white" stroke-opacity="0.2" stroke-width="2.06042" stroke-linecap="round" stroke-linejoin="round"/>
<circle cx="24.8482" cy="25.2416" r="5.49444" stroke="#4B465C" stroke-width="2.06042" stroke-linecap="round" stroke-linejoin="round"/>
<circle cx="24.8482" cy="25.2416" r="5.49444" stroke="white" stroke-opacity="0.2" stroke-width="2.06042" stroke-linecap="round" stroke-linejoin="round"/>
<path d="M20.7276 4.63745V10.1319" stroke="#4B465C" stroke-width="2.06042" stroke-linecap="round" stroke-linejoin="round"/>
<path d="M20.7276 4.63745V10.1319" stroke="white" stroke-opacity="0.2" stroke-width="2.06042" stroke-linecap="round" stroke-linejoin="round"/>
<path d="M9.73856 4.63745V10.1319" stroke="#4B465C" stroke-width="2.06042" stroke-linecap="round" stroke-linejoin="round"/>
<path d="M9.73856 4.63745V10.1319" stroke="white" stroke-opacity="0.2" stroke-width="2.06042" stroke-linecap="round" stroke-linejoin="round"/>
<path d="M4.24414 15.6264H26.2219" stroke="#4B465C" stroke-width="2.06042" stroke-linecap="round" stroke-linejoin="round"/>
<path d="M4.24414 15.6264H26.2219" stroke="white" stroke-opacity="0.2" stroke-width="2.06042" stroke-linecap="round" stroke-linejoin="round"/>
<path d="M24.8484 23.1758V25.2417L26.222 26.6153" stroke="#4B465C" stroke-width="2.06042" stroke-linecap="round" stroke-linejoin="round"/>
<path d="M24.8484 23.1758V25.2417L26.222 26.6153" stroke="white" stroke-opacity="0.2" stroke-width="2.06042" stroke-linecap="round" stroke-linejoin="round"/>
</svg>
