<svg width="42" height="42" viewBox="0 0 42 42" fill="none" xmlns="http://www.w3.org/2000/svg">
<path d="M18.7998 36.7892C18.2607 36.6219 17.6906 36.5228 17.1949 36.275C15.4475 35.389 14.5057 33.9453 14.4127 31.9813C14.3694 31.1139 14.3941 30.2465 14.4065 29.3791C14.4127 28.6479 14.958 28.1089 15.6582 28.1151C16.3398 28.1213 16.8665 28.6541 16.8789 29.3729C16.8913 30.1349 16.8789 30.9032 16.8851 31.6653C16.8913 33.2514 17.9385 34.3047 19.531 34.3047C23.571 34.3047 27.6048 34.3047 31.6449 34.3047C33.2498 34.3047 34.297 33.2514 34.297 31.6467C34.297 24.503 34.297 17.353 34.297 10.2093C34.297 8.58599 33.2498 7.54509 31.6201 7.5389C27.6048 7.5389 23.5834 7.5389 19.5681 7.5389C17.9261 7.5389 16.8913 8.57979 16.8851 10.2341C16.8851 10.959 16.8913 11.6777 16.8851 12.4026C16.8789 13.1833 16.3584 13.7347 15.6396 13.7347C14.9332 13.7285 14.4065 13.1833 14.4127 12.415C14.4189 11.3865 14.3694 10.3456 14.4809 9.32329C14.7349 6.99987 16.7798 5.15972 19.122 5.07298C19.8841 5.042 20.6525 5.06058 21.4147 5.06058C24.8413 5.06058 28.2741 5.06058 31.7007 5.06058C33.9314 5.06058 35.7841 6.33692 36.4905 8.40631C36.6702 8.93295 36.7631 9.51536 36.7631 10.073C36.7817 17.3097 36.7817 24.5525 36.7693 31.7892C36.7631 34.3171 35.0095 36.3307 32.5124 36.7273C32.4628 36.7335 32.4194 36.7644 32.3761 36.783C27.8465 36.7892 23.3231 36.7892 18.7998 36.7892Z" fill="#6D6E71"/>
<path d="M5.0437 20.6802C5.29775 19.9429 5.82445 19.6765 6.5928 19.6827C11.2587 19.7012 15.9246 19.6888 20.5904 19.6888C20.7082 19.6888 20.8321 19.6888 21.018 19.6888C20.64 19.3109 20.3178 18.9825 19.9894 18.6603C19.6672 18.3382 19.3326 18.0284 19.029 17.6938C18.5518 17.1672 18.5642 16.4423 19.0413 15.9652C19.5123 15.4943 20.2434 15.4571 20.7454 15.9342C21.7368 16.8822 22.7344 17.8301 23.6577 18.8462C24.8474 20.1535 24.773 21.8945 23.5399 23.1585C22.6538 24.0693 21.7492 24.9553 20.8383 25.8413C20.2868 26.3803 19.5371 26.3927 19.0413 25.8908C18.5394 25.389 18.5518 24.6393 19.0909 24.0941C19.6424 23.5364 20.2063 22.985 20.7577 22.4336C20.8259 22.3654 20.8941 22.2911 21.0056 22.1672C20.8259 22.1672 20.7082 22.1672 20.5904 22.1672C15.9246 22.1672 11.2587 22.161 6.5928 22.1734C5.82445 22.1734 5.29775 21.9131 5.0437 21.1758C5.0437 21.0086 5.0437 20.8413 5.0437 20.6802Z" fill="#6D6E71"/>
</svg>
