<svg width="1242" height="400" viewBox="0 0 1242 400" fill="none" xmlns="http://www.w3.org/2000/svg">
<path opacity="0.2" d="M550 400L6 400C2.68629 400 0 397.314 0 394V6.50242C0 3.18776 2.68777 0.501082 6.00242 0.502416L1236 0.997586C1239.32 0.998919 1242 3.68483 1242 6.99759V204.015C1242 205.606 1241.36 207.127 1240.22 208.232C1238.09 210.289 1235.23 213.228 1216.5 234.5C1192.9 261.3 1164.67 266.667 1153.5 266H805C771.4 266 748 281.667 740.5 289.5L671 359C640.2 391.4 628.5 400 594.5 400H550Z" fill="#00AB53"/>
</svg>
