<svg width="202" height="202" viewBox="0 0 202 202" fill="none" xmlns="http://www.w3.org/2000/svg">
<g filter="url(#filter0_d_118_1068)">
<circle cx="101" cy="98" r="98" fill="white"/>
</g>
<mask id="mask0_118_1068" style="mask-type:alpha" maskUnits="userSpaceOnUse" x="3" y="0" width="196" height="196">
<circle cx="101" cy="98" r="98" fill="white"/>
</mask>
<g mask="url(#mask0_118_1068)">
<path d="M184.691 119.712H178.615C176.802 119.712 175.338 118.25 175.338 116.438C175.338 114.626 176.802 113.164 178.615 113.164H184.691C186.505 113.164 187.968 114.626 187.968 116.438C188 118.25 186.537 119.712 184.691 119.712Z" fill="#9A9A9A"/>
<path d="M159.813 95.0454H34.9439C33.5759 95.0136 25.4952 94.505 24 85.0961V95.0454V100.227V196H179.951V115.166C179.951 104.073 170.948 95.0454 159.813 95.0454Z" fill="#C6C6C6"/>
<path d="M179.951 82.6168L179.887 82.6486C179.378 76.6726 174.256 72 168.053 72H35.8984C29.3129 72 24 77.2448 24 83.6657C24 90.1184 29.3129 95.3632 35.8984 95.3632H160.608C171.33 96.444 177.661 102.356 179.792 112.814L179.919 83.92C179.919 83.8564 179.919 83.7611 179.919 83.6975C179.919 83.6339 179.919 83.6022 179.919 83.5386L179.951 82.6168Z" fill="#9D9D9B"/>
<path d="M185.264 119.712H157.809C149.887 119.712 143.461 126.133 143.461 134.048C143.461 141.963 149.887 148.383 157.809 148.383H182.528C185.518 148.383 187.968 145.936 187.968 142.948V119.744V116.66C187.809 118.345 186.791 119.267 185.264 119.712Z" fill="#DADADA"/>
<path d="M160.29 142.376C164.49 142.376 167.894 138.974 167.894 134.779C167.894 130.583 164.49 127.182 160.29 127.182C156.091 127.182 152.687 130.583 152.687 134.779C152.687 138.974 156.091 142.376 160.29 142.376Z" fill="#9D9D9B"/>
<path d="M69.8119 141.168C85.3089 141.168 97.8717 128.616 97.8717 113.132C97.8717 97.6482 85.3089 85.0961 69.8119 85.0961C54.315 85.0961 41.7522 97.6482 41.7522 113.132C41.7522 128.616 54.315 141.168 69.8119 141.168Z" fill="white"/>
<path d="M78.5926 100.195C79.8651 100.449 80.8513 101.021 81.5512 101.975C82.2511 102.897 82.6011 104.105 82.6011 105.567V106.044L79.1334 106.393V105.853C79.1334 105.026 78.9743 104.391 78.688 104.009C78.3699 103.628 77.8927 103.405 77.2564 103.405C76.6837 103.405 76.2383 103.564 75.9202 103.914C75.6021 104.264 75.443 104.74 75.443 105.408V105.853C75.443 106.52 75.6657 107.156 76.1111 107.824C76.5565 108.491 77.3518 109.349 78.4971 110.398C80.1196 111.861 81.2331 113.164 81.8694 114.276C82.5056 115.389 82.8238 116.597 82.8238 117.868V118.44C82.8238 119.903 82.442 121.11 81.7103 122.001C80.9468 122.891 79.9287 123.463 78.6562 123.685V126.165H75.7929V123.685C74.4886 123.399 73.5024 122.827 72.7706 121.873C72.0389 120.952 71.689 119.744 71.689 118.313V116.946L75.1567 116.597V118.027C75.1567 118.854 75.3157 119.489 75.6657 119.871C76.0156 120.252 76.5247 120.475 77.2564 120.475C77.829 120.475 78.3062 120.316 78.6562 119.966C79.0061 119.617 79.2288 119.14 79.2288 118.472V117.964C79.2288 117.296 79.0061 116.66 78.5607 115.993C78.1153 115.325 77.32 114.467 76.1747 113.418C74.5522 111.956 73.4387 110.653 72.8024 109.54C72.1662 108.428 71.848 107.22 71.848 105.948V105.44C71.848 103.977 72.198 102.801 72.8979 101.88C73.5978 100.989 74.5522 100.417 75.7929 100.163V98.0651H78.6562V100.195H78.5926Z" fill="#9D9D9D"/>
</g>
<defs>
<filter id="filter0_d_118_1068" x="0.351351" y="0" width="201.297" height="201.297" filterUnits="userSpaceOnUse" color-interpolation-filters="sRGB">
<feFlood flood-opacity="0" result="BackgroundImageFix"/>
<feColorMatrix in="SourceAlpha" type="matrix" values="0 0 0 0 0 0 0 0 0 0 0 0 0 0 0 0 0 0 127 0" result="hardAlpha"/>
<feOffset dy="2.64865"/>
<feGaussianBlur stdDeviation="1.32432"/>
<feComposite in2="hardAlpha" operator="out"/>
<feColorMatrix type="matrix" values="0 0 0 0 0 0 0 0 0 0 0 0 0 0 0 0 0 0 0.25 0"/>
<feBlend mode="normal" in2="BackgroundImageFix" result="effect1_dropShadow_118_1068"/>
<feBlend mode="normal" in="SourceGraphic" in2="effect1_dropShadow_118_1068" result="shape"/>
</filter>
</defs>
</svg>
